<svg width="20.000000" height="20.000000" viewBox="0 0 20 20" fill="none" xmlns="http://www.w3.org/2000/svg" xmlns:xlink="http://www.w3.org/1999/xlink">
	<desc>
			Created with Pixso.
	</desc>
	<defs/>
	<path id="Subtract" d="M10.0996 0L9.90039 0C5.77539 0 3.71289 0 2.26758 1.05029C1.7998 1.38965 1.38965 1.80029 1.05078 2.26709C0 3.71289 0 5.77539 0 9.8999L0 10.1001C0 14.2246 0 16.2871 1.05078 17.7329C1.38965 18.1997 1.7998 18.6104 2.26758 18.9497C3.71289 20 5.77539 20 9.90039 20L10.0996 20C14.2246 20 16.2871 20 17.7324 18.9497C18.2002 18.6104 18.6104 18.1997 18.9492 17.7329C20 16.2871 20 14.2246 20 10.1001L20 9.8999C20 5.77539 20 3.71289 18.9492 2.26709C18.6104 1.80029 18.2002 1.38965 17.7324 1.05029C16.2871 0 14.2246 0 10.0996 0ZM15.6914 5.01416C16.0811 5.01416 16.3965 4.69824 16.3965 4.30859C16.3965 3.91943 16.0811 3.60352 15.6914 3.60352C15.3018 3.60352 14.9854 3.91943 14.9854 4.30859C14.9854 4.69824 15.3018 5.01416 15.6914 5.01416ZM10 4.70605C7.07617 4.70605 4.70605 7.07617 4.70605 10C4.70605 12.9238 7.07617 15.2939 10 15.2939C12.9238 15.2939 15.2939 12.9238 15.2939 10C15.2939 7.07617 12.9238 4.70605 10 4.70605ZM10 13.3086C8.17578 13.3086 6.69141 11.8237 6.69141 10C6.69141 8.1748 8.17578 6.69141 10 6.69141C11.8242 6.69141 13.3086 8.1748 13.3086 10C13.3086 11.8237 11.8242 13.3086 10 13.3086Z" clip-rule="evenodd" fill="#251E1E" fill-opacity="1.000000" fill-rule="evenodd"/>
</svg>
