<svg width="62.896484" height="62.896362" viewBox="0 0 62.8965 62.8964" fill="none" xmlns="http://www.w3.org/2000/svg" xmlns:xlink="http://www.w3.org/1999/xlink">
	<desc>
			Created with Pixso.
	</desc>
	<defs/>
	<circle id="Ellipse 1" cx="31.448242" cy="31.448242" r="31.448210" fill="#C4C4C4" fill-opacity="0"/>
	<circle id="Ellipse 1" cx="31.448242" cy="31.448242" r="30.448210" stroke="#FFFFFF" stroke-opacity="1.000000" stroke-width="2.000000"/>
	<rect id="Play" rx="0.000000" width="23.000000" height="23.000000" transform="translate(19.948242 19.948242)" fill="#FFFFFF" fill-opacity="0"/>
	<path id="Vector" d="M26.44 32.84L26.44 30.04C26.44 27.13 26.44 25.67 27.38 25.08C27.4 25.07 27.43 25.05 27.45 25.04C28.41 24.49 29.7 25.18 32.27 26.55L34.89 27.95C37.74 29.47 39.17 30.23 39.19 31.4C39.19 31.43 39.19 31.46 39.19 31.49C39.17 32.66 37.74 33.42 34.89 34.94L32.27 36.34C29.7 37.71 28.41 38.39 27.45 37.85C27.43 37.83 27.4 37.82 27.38 37.8C26.44 37.22 26.44 35.76 26.44 32.84Z" fill="#FFFFFF" fill-opacity="1.000000" fill-rule="evenodd"/>
</svg>
